<svg width="18" height="18" viewBox="0 0 18 18" fill="none" xmlns="http://www.w3.org/2000/svg">
<path d="M10.25 13.74C10.25 14.43 9.72 15 9 15C8.3 15 7.74 14.44 7.74 13.74C7.74 13.03 8.3 12.49 9 12.49C9.71 12.49 10.25 13.04 10.25 13.74ZM8.99 3C7.22 3 6.01 4.15 5.56 5.49L7.2 6.18C7.42 5.51 7.94 4.7 9 4.7C10.62 4.7 10.94 6.22 10.37 7.03C9.83 7.8 8.9 8.32 8.41 9.19C8.02 9.88 8.1 10.68 8.1 11.17H9.92C9.92 10.24 9.99 10.05 10.14 9.76C10.53 9.04 11.25 8.7 12.01 7.59C12.69 6.59 12.43 5.23 11.99 4.51C11.48 3.67 10.47 3 8.99 3ZM16 2H2V16H16V2ZM16 0C17.1 0 18 0.9 18 2V16C18 17.1 17.1 18 16 18H2C0.9 18 0 17.1 0 16V2C0 0.9 0.9 0 2 0H16Z" fill="#1B2559"/>
</svg>
