<svg width="15" height="17" viewBox="0 0 15 17" fill="none" xmlns="http://www.w3.org/2000/svg">
<path d="M0 16.5V13.5H15V16.5H0ZM3 10.5H4.05L9.9 4.66875L9.35625 4.125L8.83125 3.6L3 9.45V10.5ZM1.5 12V8.8125L9.9 0.43125C10.0375 0.29375 10.1969 0.1875 10.3781 0.1125C10.5594 0.0375 10.75 0 10.95 0C11.15 0 11.3438 0.0375 11.5313 0.1125C11.7188 0.1875 11.8875 0.3 12.0375 0.45L13.0688 1.5C13.2188 1.6375 13.3281 1.8 13.3969 1.9875C13.4656 2.175 13.5 2.36875 13.5 2.56875C13.5 2.75625 13.4656 2.94063 13.3969 3.12188C13.3281 3.30313 13.2188 3.46875 13.0688 3.61875L4.6875 12H1.5ZM9.9 4.66875L9.35625 4.125L8.83125 3.6L9.9 4.66875Z" fill="#1B2559"/>
</svg>
