<svg width="17" height="10" viewBox="0 0 17 10" fill="none" xmlns="http://www.w3.org/2000/svg">
<path d="M0.916667 6C1.42083 6 1.83333 5.55 1.83333 5C1.83333 4.45 1.42083 4 0.916667 4C0.4125 4 0 4.45 0 5C0 5.55 0.4125 6 0.916667 6ZM0.916667 10C1.42083 10 1.83333 9.55 1.83333 9C1.83333 8.45 1.42083 8 0.916667 8C0.4125 8 0 8.45 0 9C0 9.55 0.4125 10 0.916667 10ZM0.916667 2C1.42083 2 1.83333 1.55 1.83333 1C1.83333 0.45 1.42083 0 0.916667 0C0.4125 0 0 0.45 0 1C0 1.55 0.4125 2 0.916667 2ZM4.58333 6H15.5833C16.0875 6 16.5 5.55 16.5 5C16.5 4.45 16.0875 4 15.5833 4H4.58333C4.07917 4 3.66667 4.45 3.66667 5C3.66667 5.55 4.07917 6 4.58333 6ZM4.58333 10H15.5833C16.0875 10 16.5 9.55 16.5 9C16.5 8.45 16.0875 8 15.5833 8H4.58333C4.07917 8 3.66667 8.45 3.66667 9C3.66667 9.55 4.07917 10 4.58333 10ZM3.66667 1C3.66667 1.55 4.07917 2 4.58333 2H15.5833C16.0875 2 16.5 1.55 16.5 1C16.5 0.45 16.0875 0 15.5833 0H4.58333C4.07917 0 3.66667 0.45 3.66667 1ZM0.916667 6C1.42083 6 1.83333 5.55 1.83333 5C1.83333 4.45 1.42083 4 0.916667 4C0.4125 4 0 4.45 0 5C0 5.55 0.4125 6 0.916667 6ZM0.916667 10C1.42083 10 1.83333 9.55 1.83333 9C1.83333 8.45 1.42083 8 0.916667 8C0.4125 8 0 8.45 0 9C0 9.55 0.4125 10 0.916667 10ZM0.916667 2C1.42083 2 1.83333 1.55 1.83333 1C1.83333 0.45 1.42083 0 0.916667 0C0.4125 0 0 0.45 0 1C0 1.55 0.4125 2 0.916667 2ZM4.58333 6H15.5833C16.0875 6 16.5 5.55 16.5 5C16.5 4.45 16.0875 4 15.5833 4H4.58333C4.07917 4 3.66667 4.45 3.66667 5C3.66667 5.55 4.07917 6 4.58333 6ZM4.58333 10H15.5833C16.0875 10 16.5 9.55 16.5 9C16.5 8.45 16.0875 8 15.5833 8H4.58333C4.07917 8 3.66667 8.45 3.66667 9C3.66667 9.55 4.07917 10 4.58333 10ZM3.66667 1C3.66667 1.55 4.07917 2 4.58333 2H15.5833C16.0875 2 16.5 1.55 16.5 1C16.5 0.45 16.0875 0 15.5833 0H4.58333C4.07917 0 3.66667 0.45 3.66667 1Z" fill="#8F9BBA"/>
</svg>
