<svg width="21" height="23" viewBox="0 0 21 23" fill="none" xmlns="http://www.w3.org/2000/svg">
<path fill-rule="evenodd" clip-rule="evenodd" d="M10.2682 0C8.61289 0 7.0254 0.657558 5.85494 1.82802C4.68448 2.99848 4.02693 4.58596 4.02693 6.24125V9.05978H3.22129C1.44222 9.05978 0 10.502 0 12.2811V19.3276C0 21.1067 1.44222 22.5489 3.22129 22.5489H17.3144C19.0935 22.5489 20.5357 21.1067 20.5357 19.3276V12.2811C20.5357 10.502 19.0935 9.05978 17.3144 9.05978H16.5094V6.24125C16.5094 4.58596 15.8519 2.99848 14.6814 1.82802C13.5109 0.657558 11.9235 0 10.2682 0ZM15.2863 11.4757C15.2913 11.4758 15.2964 11.4758 15.3014 11.4758C15.3065 11.4758 15.3116 11.4758 15.3166 11.4757H17.3144C17.7592 11.4757 18.1197 11.8363 18.1197 12.2811V19.3276C18.1197 19.7724 17.7592 20.133 17.3144 20.133H3.22129C2.77652 20.133 2.41597 19.7724 2.41597 19.3276V12.2811C2.41597 11.8363 2.77652 11.4757 3.22129 11.4757H5.21973C5.22478 11.4758 5.22984 11.4758 5.23491 11.4758C5.23998 11.4758 5.24504 11.4758 5.25009 11.4757H15.2863ZM6.44289 9.05978V6.24125C6.44289 5.22672 6.84591 4.25374 7.56329 3.53636C8.28067 2.81899 9.25364 2.41597 10.2682 2.41597C11.2827 2.41597 12.2557 2.81899 12.9731 3.53636C13.6904 4.25374 14.0935 5.22672 14.0935 6.24125V9.05978H6.44289Z" fill="#8F9BBA"/>
</svg>
