<svg width="20" height="22" viewBox="0 0 20 22" fill="none" xmlns="http://www.w3.org/2000/svg">
<path fill-rule="evenodd" clip-rule="evenodd" d="M9.72384 0C6.68792 0 4.22682 2.4611 4.22682 5.49702C4.22682 8.53294 6.68792 10.994 9.72384 10.994C12.7598 10.994 15.2209 8.53294 15.2209 5.49702C15.2209 2.4611 12.7598 0 9.72384 0ZM6.76391 5.49702C6.76391 3.86229 8.08912 2.53709 9.72384 2.53709C11.3586 2.53709 12.6838 3.86229 12.6838 5.49702C12.6838 7.13174 11.3586 8.45695 9.72384 8.45695C8.08912 8.45695 6.76391 7.13174 6.76391 5.49702ZM5.49702 12.6854C4.03912 12.6854 2.64093 13.2646 1.61004 14.2955C0.579148 15.3264 0 16.7245 0 18.1824V20.2967C0 20.9973 0.567946 21.5652 1.26854 21.5652C1.96914 21.5652 2.53709 20.9973 2.53709 20.2967V18.1824C2.53709 17.3974 2.84893 16.6446 3.40403 16.0895C3.95912 15.5344 4.71199 15.2225 5.49702 15.2225H13.954C14.739 15.2225 15.4919 15.5344 16.047 16.0895C16.6021 16.6446 16.9139 17.3974 16.9139 18.1824V20.2967C16.9139 20.9973 17.4818 21.5652 18.1824 21.5652C18.883 21.5652 19.451 20.9973 19.451 20.2967V18.1824C19.451 16.7245 18.8718 15.3264 17.8409 14.2955C16.8101 13.2646 15.4119 12.6854 13.954 12.6854H5.49702Z" fill="#8F9BBA"/>
</svg>
