<svg width="50" height="50" viewBox="0 0 50 50" fill="none" xmlns="http://www.w3.org/2000/svg">
<path fill-rule="evenodd" clip-rule="evenodd" d="M48.9774 4.02607C49.6896 2.06938 48.2406 0 46.1584 0H3.00265C0.915391 0 -0.533957 2.07855 0.18762 4.03711L16.0297 47.0371C16.4642 48.2165 17.5879 49 18.8448 49H30.5075C31.7686 49 32.8952 48.2112 33.3265 47.0261L48.9774 4.02607Z" fill="#4D24FF"/>
<path fill-rule="evenodd" clip-rule="evenodd" d="M47.4051 0.5C47.5881 0.908644 47.1354 1.83753 46.1226 3.28435C42.6226 8.28435 27.1229 33.451 18.6229 47.7843C18.3415 48.2063 17.6804 48.842 17 48.5492C17.5341 49.013 18.2277 49.2843 18.9674 49.2843H30.6301C31.8913 49.2843 33.0178 48.4956 33.4491 47.3104L49.1001 4.31042C49.6748 2.73145 48.8422 1.0791 47.4051 0.5Z" fill="#633FFF"/>
<path d="M22.6506 40.5C21.9713 40.5 21.6316 40.5 21.3729 40.3182C21.1142 40.1364 20.9991 39.8168 20.7689 39.1777L9.96437 9.17769C9.52556 7.95929 9.30616 7.35008 9.60485 6.92504C9.90353 6.5 10.551 6.5 11.8461 6.5H14.1243C14.8142 6.5 15.1592 6.5 15.42 6.68631C15.6808 6.87262 15.7926 7.19896 16.0163 7.85164L23.1367 28.63C23.92 30.9159 24.3117 32.0588 25.0255 32.0594C25.7393 32.0599 26.1328 30.9176 26.9197 28.6329L34.0781 7.84871C34.3024 7.19739 34.4146 6.87172 34.6752 6.68586C34.9358 6.5 35.2802 6.5 35.9691 6.5H38.1539C39.449 6.5 40.0965 6.5 40.3952 6.92504C40.6938 7.35008 40.4744 7.95929 40.0356 9.17769L29.2311 39.1777C29.0009 39.8168 28.8858 40.1364 28.6271 40.3182C28.3684 40.5 28.0287 40.5 27.3494 40.5H22.6506Z" fill="#F4F7FE"/>
</svg>
