<svg width="124" height="40" viewBox="0 0 124 40" fill="none" xmlns="http://www.w3.org/2000/svg">
<path d="M107.5 38.4484C106.558 38.4484 106.086 38.4484 105.793 38.1555C105.5 37.8627 105.5 37.3912 105.5 36.4484V8.21044C105.5 7.26763 105.5 6.79623 105.207 6.50333C104.915 6.21044 104.443 6.21044 103.5 6.21044H98.4844C97.5416 6.21044 97.0702 6.21044 96.7773 5.91755C96.4844 5.62465 96.4844 5.15325 96.4844 4.21044V2.64844C96.4844 1.70563 96.4844 1.23422 96.7773 0.941331C97.0702 0.648438 97.5416 0.648438 98.4844 0.648438H121.482C122.425 0.648438 122.897 0.648438 123.189 0.941331C123.482 1.23422 123.482 1.70563 123.482 2.64844V4.21044C123.482 5.15325 123.482 5.62465 123.189 5.91755C122.897 6.21044 122.425 6.21044 121.482 6.21044H114.412C113.47 6.21044 112.998 6.21044 112.705 6.50333C112.412 6.79623 112.412 7.26763 112.412 8.21044V36.4484C112.412 37.3912 112.412 37.8627 112.119 38.1555C111.827 38.4484 111.355 38.4484 110.412 38.4484H107.5Z" fill="#F4F7FE"/>
<path d="M15.2221 38.4484C14.5462 38.4484 14.2082 38.4484 13.9501 38.268C13.692 38.0876 13.576 37.7702 13.3438 37.1354L0.982649 3.33537C0.535789 2.11349 0.31236 1.50255 0.610897 1.07549C0.909434 0.648438 1.55995 0.648438 2.86098 0.648438H5.97633C6.66302 0.648438 7.00637 0.648438 7.26654 0.833376C7.52671 1.01832 7.63955 1.34259 7.86523 1.99114L16.2059 25.9599C16.9895 28.2119 17.3814 29.338 18.0916 29.3385C18.8018 29.3391 19.1954 28.2137 19.9826 25.9629L28.3674 1.98818C28.5938 1.341 28.707 1.01741 28.9669 0.832923C29.2269 0.648438 29.5697 0.648438 30.2553 0.648438H33.265C34.5661 0.648438 35.2166 0.648438 35.5151 1.07549C35.8136 1.50255 35.5902 2.11349 35.1434 3.33537L22.7822 37.1354C22.55 37.7702 22.434 38.0876 22.1759 38.268C21.9178 38.4484 21.5798 38.4484 20.9039 38.4484H15.2221Z" fill="#F4F7FE"/>
<path d="M48.2221 0.648239C47.5462 0.648239 47.2082 0.648239 46.9501 0.828646C46.692 1.00905 46.576 1.32647 46.3438 1.96131L33.9826 35.7613C33.5358 36.9832 33.3124 37.5941 33.6109 38.0212C33.9094 38.4482 34.5599 38.4482 35.861 38.4482H38.9763C39.663 38.4482 40.0064 38.4482 40.2665 38.2633C40.5267 38.0784 40.6396 37.7541 40.8652 37.1055L49.2059 13.1368C49.9895 10.8847 50.3814 9.75872 51.0916 9.75816C51.8018 9.75761 52.1954 10.883 52.9826 13.1338L61.3674 37.1085C61.5938 37.7557 61.707 38.0793 61.9669 38.2638C62.2269 38.4482 62.5697 38.4482 63.2553 38.4482H66.265C67.5661 38.4482 68.2166 38.4482 68.5151 38.0212C68.8136 37.5941 68.5902 36.9832 68.1434 35.7613L55.7822 1.9613C55.55 1.32647 55.434 1.00905 55.1759 0.828646C54.9178 0.648239 54.5798 0.648239 53.9039 0.648239H48.2221Z" fill="#F4F7FE"/>
<path fill-rule="evenodd" clip-rule="evenodd" d="M79.9998 38.6614C79.9998 38.9005 80.1914 39.096 80.4306 39.096V39.096C83.3106 39.096 85.7406 38.592 87.7206 37.584C89.7006 36.54 91.1946 35.172 92.2026 33.48C93.2106 31.788 93.7146 29.952 93.7146 27.972C93.7146 25.74 93.2466 23.922 92.3106 22.518C91.3746 21.078 90.1326 19.926 88.5846 19.062C87.0366 18.198 85.3266 17.442 83.4546 16.794C81.6906 16.218 80.1246 15.678 78.7566 15.174C77.3886 14.67 76.3086 14.058 75.5166 13.338C74.7246 12.582 74.3286 11.574 74.3286 10.314C74.3286 8.838 74.8326 7.722 75.8406 6.966C76.8846 6.174 78.1626 5.796 79.6746 5.832C81.4386 5.832 82.8066 6.354 83.7786 7.398C84.2795 7.89898 84.6605 8.43997 84.9214 9.02099L84.9214 9.021C85.3902 10.065 85.6246 10.5871 85.8725 10.7475C86.1205 10.908 86.5107 10.908 87.2912 10.908H90.677C91.6762 10.908 92.1759 10.908 92.4759 10.5421C92.776 10.1763 92.6882 9.73668 92.5127 8.85749C92.2365 7.47362 91.7191 6.23112 90.9606 5.13C89.8806 3.51 88.3686 2.25 86.4246 1.35C84.5166 0.45 82.3026 0 79.7826 0C77.2986 0 75.1026 0.45 73.1946 1.35C71.2866 2.214 69.7746 3.456 68.6586 5.076C67.5786 6.66 67.0566 8.568 67.0926 10.8C67.0926 13.428 67.8486 15.534 69.3606 17.118C70.9086 18.702 73.1406 19.998 76.0566 21.006C77.8566 21.618 79.5486 22.194 81.1326 22.734C82.7166 23.274 83.9766 23.976 84.9126 24.84C85.8846 25.704 86.3706 26.91 86.3706 28.458C86.3706 29.934 85.8306 31.122 84.7506 32.022C83.6706 32.886 82.2126 33.318 80.3766 33.318V33.318C80.1705 33.318 79.9998 33.4825 79.9998 33.6885V38.6614Z" fill="#F4F7FE"/>
</svg>
